<svg width="12" height="13" viewBox="0 0 12 13" fill="none" xmlns="http://www.w3.org/2000/svg">
<g clip-path="url(#clip0)">
<path d="M11.993 3.21C11.9974 3.22596 11.9996 3.24241 11.9996 3.25896V5.83023C11.9996 5.89741 11.9637 5.95946 11.9054 5.99287L9.74731 7.23546V9.69819C9.74732 9.73114 9.73867 9.76352 9.72222 9.79207C9.70576 9.82062 9.6821 9.84435 9.65358 9.86087L5.14867 12.4542C5.13836 12.46 5.12713 12.4637 5.11586 12.4678C5.11163 12.4691 5.10768 12.4717 5.10322 12.4729C5.07173 12.4812 5.03862 12.4812 5.00713 12.4729C5.00195 12.4715 4.99727 12.4687 4.99236 12.4668C4.98204 12.463 4.97127 12.4598 4.96145 12.4542L0.457447 9.86082C0.428827 9.84439 0.405045 9.82071 0.388501 9.79215C0.371958 9.7636 0.363237 9.73119 0.36322 9.69819V1.98437C0.36322 1.96746 0.365584 1.95105 0.369766 1.93514C0.371175 1.92973 0.374447 1.92482 0.376357 1.91941C0.379857 1.9096 0.383175 1.8995 0.388311 1.89037C0.391811 1.88428 0.396947 1.87937 0.401175 1.87373C0.406584 1.86623 0.411493 1.8585 0.417811 1.85191C0.42322 1.84655 0.430266 1.84255 0.436357 1.83787C0.443175 1.83223 0.44922 1.82614 0.456947 1.82169H0.457175L2.70927 0.52505C2.73778 0.508638 2.77011 0.5 2.80302 0.5C2.83592 0.5 2.86825 0.508638 2.89677 0.52505L5.14886 1.82169H5.14931C5.15681 1.82641 5.16318 1.83223 5.16995 1.83764C5.17604 1.84232 5.18286 1.84655 5.18822 1.85173C5.19481 1.8585 5.19949 1.86628 5.20508 1.87373C5.20908 1.87937 5.21449 1.88428 5.21777 1.89037C5.22313 1.89973 5.22617 1.9096 5.22995 1.91946C5.23181 1.92482 5.23508 1.92973 5.23649 1.93537C5.24081 1.95132 5.24304 1.96782 5.24308 1.98437V6.80228L7.11972 5.72169V3.25873C7.11972 3.24237 7.12208 3.22569 7.12631 3.21C7.12795 3.20437 7.13099 3.19946 7.13286 3.1941C7.13663 3.18423 7.1399 3.1741 7.14504 3.165C7.14854 3.15891 7.15368 3.154 7.15772 3.14837C7.16331 3.14087 7.16799 3.13314 7.17454 3.12655C7.17999 3.12119 7.18677 3.11719 7.19286 3.1125C7.1999 3.10687 7.20599 3.10078 7.21349 3.09632H7.21372L9.46604 1.79969C9.49455 1.78325 9.52688 1.7746 9.55979 1.7746C9.5927 1.7746 9.62503 1.78325 9.65354 1.79969L11.9056 3.09632C11.9136 3.101 11.9197 3.10687 11.9267 3.11223C11.9325 3.11696 11.9394 3.12119 11.9448 3.12632C11.9513 3.13314 11.956 3.14087 11.9616 3.14837C11.9659 3.154 11.971 3.15891 11.9743 3.165C11.9797 3.1741 11.9827 3.18423 11.9864 3.1941C11.9886 3.19946 11.9916 3.20437 11.993 3.21ZM11.6242 5.72173V3.58355L10.836 4.03723L9.74727 4.66414V6.80232L11.6244 5.72173H11.6242ZM9.37208 9.58969V7.45L8.30108 8.06169L5.24286 9.80714V11.9669L9.37208 9.5896V9.58969ZM0.738629 2.30891V9.58969L4.8674 11.9667V9.80737L2.71049 8.58664L2.70981 8.58619L2.7089 8.58573C2.70163 8.5815 2.69549 8.57541 2.68872 8.57028C2.68281 8.56555 2.67604 8.56182 2.6709 8.55664L2.67045 8.55596C2.66436 8.5501 2.66013 8.54282 2.65499 8.53628C2.65027 8.52991 2.64467 8.52455 2.6409 8.51801L2.64067 8.51728C2.63645 8.51028 2.63386 8.50182 2.63081 8.49387C2.62777 8.48682 2.62381 8.48023 2.6219 8.47278V8.47255C2.61958 8.46364 2.61913 8.45423 2.61817 8.4451C2.61727 8.4381 2.61536 8.43105 2.61536 8.42401V3.38955L1.52677 2.76237L0.738629 2.30919V2.30891ZM2.80327 0.904232L0.926811 1.98437L2.80281 3.06446L4.67899 1.9841L2.80281 0.904232H2.80327ZM3.77908 7.64505L4.86763 7.01841V2.30891L4.07958 2.76264L2.99072 3.3895V8.09896L3.77908 7.64505ZM9.55977 2.17887L7.68358 3.25896L9.55977 4.3391L11.4357 3.25873L9.55981 2.17887H9.55977ZM9.37204 4.66414L8.28327 4.03723L7.49517 3.58355V5.72173L8.58372 6.34841L9.37208 6.80232V4.66414H9.37204ZM5.0549 9.4826L7.80686 7.9115L9.18249 7.12641L7.30767 6.047L5.14908 7.28973L3.18172 8.42237L5.0549 9.4826Z" fill="#FF2D20"/>
</g>
<defs>
<clipPath id="clip0">
<rect width="11.6376" height="12" fill="white" transform="translate(0.362396 0.5)"/>
</clipPath>
</defs>
</svg>
