<svg width="300" height="300" viewBox="0 0 300 300" fill="none" xmlns="http://www.w3.org/2000/svg">
  <path
    d="M168 250H279C282.542 250 285.932 248.756 289 247C292.068 245.244 295.23 243.041 297 240C298.77 236.959 300.002 233.51 300 229.999C299.998 226.488 298.773 223.04 297 220.001L222 91C220.23 87.96 218.067 85.7552 215 84C211.933 82.2448 207.542 81 204 81C200.458 81 197.067 82.2448 194 84C190.933 85.7552 188.77 87.96 187 91L168 124L130 59.9976C128.228 56.9578 126.068 53.7549 123 52C119.932 50.2451 116.542 50 113 50C109.458 50 106.068 50.2451 103 52C99.9323 53.7549 96.7717 56.9578 95 59.9976L2.00001 220.001C0.226985 223.04 0.00154882 226.488 7.60802e-06 229.999C-0.0015336 233.51 0.229654 236.959 2.00001 240C3.77036 243.04 6.93246 245.244 10 247C13.0675 248.756 16.4578 250 20 250H90C117.737 250 137.925 237.558 152 214L186 155L204 124L259 218H186L168 250ZM89 218H40L113 92L150 155L125.491 197.725C116.144 213.01 105.488 218 89 218Z"
    fill="#00DC82" />
</svg>
  