<svg width="15" height="13" viewBox="0 0 15 13" fill="none" xmlns="http://www.w3.org/2000/svg">
<g clip-path="url(#clip0)">
<path d="M12.332 4.38546C12.1724 4.33627 12.0115 4.29069 11.8494 4.24878C11.8766 4.14878 11.9017 4.04999 11.9239 3.95294C12.2893 2.3592 12.0504 1.07525 11.2345 0.652517C10.4522 0.247254 9.17285 0.669833 7.88075 1.6802C7.75341 1.77996 7.62889 1.88259 7.50732 1.98799C7.42594 1.9179 7.34311 1.84917 7.2589 1.78183C5.90471 0.701517 4.54736 0.246201 3.73232 0.670149C2.95072 1.07668 2.71928 2.28368 3.04825 3.7941C3.08098 3.94369 3.11794 4.09251 3.15908 4.24041C2.96695 4.28946 2.78155 4.34167 2.60412 4.39725C1.01645 4.89462 0.00253296 5.67404 0.00253296 6.48252C0.00253296 7.31752 1.09101 8.15504 2.74465 8.66289C2.87871 8.70389 3.01389 8.74188 3.15006 8.77683C3.10584 8.93613 3.06657 9.09651 3.03232 9.25778C2.7187 10.742 2.96361 11.9205 3.74309 12.3244C4.54818 12.7416 5.89944 12.3128 7.21514 11.2794C7.32183 11.1954 7.42617 11.109 7.52806 11.0203C7.65971 11.1344 7.79488 11.2453 7.93341 11.3526C9.20793 12.338 10.4666 12.7359 11.2454 12.3308C12.0497 11.9125 12.3111 10.6465 11.9717 9.1062C11.945 8.98553 11.915 8.86546 11.8818 8.7461C11.9767 8.72083 12.0698 8.69483 12.1606 8.66778C13.8798 8.15604 14.9983 7.32867 14.9983 6.48252C14.9983 5.6711 13.9516 4.88641 12.332 4.38546ZM11.9592 8.12146C11.8772 8.14583 11.7931 8.16936 11.7073 8.19225C11.5175 7.65241 11.2614 7.07841 10.948 6.48531C11.2471 5.90636 11.4933 5.33967 11.6778 4.80336C11.8312 4.84325 11.98 4.88531 12.1236 4.92968C13.5112 5.35894 14.3577 5.99352 14.3577 6.48252C14.3577 7.00336 13.4435 7.67952 11.9592 8.12146ZM11.3433 9.21799C11.4934 9.89904 11.5148 10.5148 11.4154 10.9963C11.3261 11.4288 11.1465 11.7172 10.9244 11.8327C10.4518 12.0785 9.44119 11.759 8.35124 10.9163C8.22239 10.8165 8.09666 10.7135 7.97418 10.6074C8.39676 10.1921 8.81904 9.70947 9.23119 9.17336C9.95614 9.11557 10.641 9.02104 11.2621 8.89204C11.2927 9.00294 11.3199 9.11168 11.3433 9.21799ZM5.11491 11.7903C4.65321 11.9367 4.28546 11.9409 4.06316 11.8258C3.59015 11.5807 3.39351 10.6344 3.66173 9.36515C3.69362 9.21516 3.73012 9.066 3.77121 8.91783C4.38545 9.03994 5.06536 9.12773 5.79201 9.18068C6.20697 9.70525 6.64143 10.1874 7.0793 10.6096C6.98625 10.6905 6.89099 10.7694 6.79362 10.846C6.21177 11.303 5.62875 11.6272 5.11491 11.7903ZM2.95189 8.11825C2.22067 7.89368 1.6168 7.60183 1.2029 7.28336C0.830931 6.9972 0.643191 6.71304 0.643191 6.48252C0.643191 5.99189 1.45724 5.3661 2.815 4.94078C2.97978 4.8892 3.15223 4.84052 3.33118 4.79483C3.51886 5.34325 3.765 5.91668 4.06205 6.49652C3.76114 7.08494 3.51148 7.66752 3.32198 8.22241C3.19769 8.19042 3.07429 8.15569 2.95189 8.11825ZM3.67696 3.68352C3.39515 2.38946 3.5823 1.41331 4.05332 1.16831C4.55497 0.907359 5.66431 1.27941 6.83357 2.21225C6.90981 2.27322 6.98482 2.33542 7.05856 2.39883C6.62287 2.8192 6.19238 3.29778 5.78111 3.81925C5.07584 3.87799 4.40074 3.97231 3.78006 4.09868C3.74182 3.96111 3.70744 3.82269 3.67696 3.68357V3.68352ZM10.1455 5.11867C9.99886 4.89114 9.84681 4.66648 9.68944 4.44483C10.1679 4.4992 10.6263 4.57136 11.0568 4.65957C10.9276 5.03178 10.7665 5.42089 10.5769 5.81983C10.4383 5.58356 10.2944 5.34979 10.1455 5.11867ZM7.50762 2.8102C7.80308 3.09783 8.09901 3.41894 8.39008 3.76736C7.79962 3.7423 7.20818 3.7422 6.61771 3.76704C6.90907 3.42183 7.20752 3.10115 7.50762 2.8102ZM4.85284 5.12262C4.70571 5.35188 4.56456 5.58419 4.4295 5.81936C4.24299 5.42183 4.08337 5.03094 3.95304 4.65346C4.38088 4.56746 4.83714 4.49715 5.31255 4.44378C5.15342 4.66678 5.00014 4.89311 4.85284 5.12257V5.12262ZM5.3262 8.5622C4.83503 8.51294 4.37192 8.44625 3.94419 8.36257C4.07657 7.97836 4.23971 7.57915 4.43026 7.1731C4.56586 7.40844 4.7076 7.64089 4.85536 7.87025C5.00731 8.10604 5.16465 8.33699 5.3262 8.5622ZM7.52531 10.1954C7.22164 9.90104 6.9188 9.57541 6.62304 9.2252C6.91019 9.23531 7.2029 9.24047 7.50041 9.24047C7.80607 9.24047 8.10821 9.23431 8.4056 9.22241C8.1136 9.57894 7.81878 9.90504 7.52531 10.1954ZM10.5829 7.15236C10.7834 7.56289 10.9523 7.95999 11.0864 8.33762C10.6517 8.42678 10.1822 8.49857 9.68762 8.55189C9.84612 8.32612 9.9996 8.09755 10.148 7.86631C10.2988 7.63125 10.4439 7.39321 10.5829 7.15236ZM9.59308 7.57873C9.36593 7.93327 9.12601 8.28109 8.87369 8.62162C8.41665 8.65071 7.9586 8.66515 7.50041 8.66494C7.03373 8.66494 6.57981 8.65189 6.14271 8.62641C5.88381 8.28667 5.63931 7.93824 5.40973 7.58189H5.40979C5.18129 7.22742 4.96786 6.86528 4.76995 6.49625C4.96736 6.12714 5.18014 5.76483 5.40786 5.4101L5.4078 5.41015C5.63543 5.05532 5.87798 4.70838 6.13492 4.3701C6.58087 4.33978 7.03818 4.32399 7.50035 4.32399H7.50041C7.96469 4.32399 8.42259 4.33994 8.86842 4.37046C9.12277 4.70825 9.36377 5.05399 9.59097 5.40704C9.81945 5.761 10.035 6.12154 10.2374 6.4881C10.0371 6.8584 9.8222 7.22217 9.59308 7.57873ZM10.9146 1.15115C11.4167 1.41136 11.612 2.46067 11.2965 3.83673C11.2764 3.92452 11.2537 4.01394 11.2291 4.10462C10.6069 3.97557 9.93136 3.87962 9.22404 3.81999C8.81201 3.29278 8.38504 2.81346 7.95643 2.39852C8.06876 2.30123 8.18377 2.20646 8.30134 2.11431C9.40844 1.24868 10.4432 0.906886 10.9146 1.15115ZM7.50041 5.27936C8.23995 5.27936 8.83948 5.81804 8.83948 6.48252C8.83948 7.14699 8.23995 7.68568 7.50041 7.68568C6.76087 7.68568 6.16134 7.14699 6.16134 6.48252C6.16134 5.81804 6.76087 5.27936 7.50041 5.27936Z" fill="#00D8FF"/>
</g>
<defs>
<clipPath id="clip0">
<rect width="15" height="12" fill="white" transform="translate(0 0.5)"/>
</clipPath>
</defs>
</svg>
