<svg width="12" height="13" viewBox="0 0 12 13" fill="none" xmlns="http://www.w3.org/2000/svg">
<path d="M2.17499 9.72501L2.23874 9.63613L5.24624 3.93088L5.25261 3.87051L3.92699 1.38051C3.90272 1.33497 3.86475 1.29822 3.81844 1.27546C3.77214 1.25269 3.71985 1.24506 3.66897 1.25364C3.6181 1.26222 3.5712 1.28659 3.53493 1.32329C3.49866 1.35998 3.47485 1.40716 3.46686 1.45813L2.17499 9.72501Z" fill="#FFC24A"/>
<path d="M2.21249 9.65751L2.26049 9.56376L5.23687 3.91776L3.91462 1.41801C3.89281 1.37453 3.85751 1.3393 3.814 1.31758C3.77048 1.29585 3.7211 1.28881 3.67325 1.29751C3.6254 1.30621 3.58166 1.33018 3.54857 1.36583C3.51549 1.40148 3.49485 1.44689 3.48974 1.49526L2.21249 9.65751Z" fill="#FFA712"/>
<path d="M6.21901 5.75375L7.20601 4.74125L6.21864 2.85838C6.19691 2.81785 6.16459 2.78398 6.12514 2.76037C6.08568 2.73676 6.04056 2.72429 5.99458 2.72429C5.94859 2.72429 5.90347 2.73676 5.86402 2.76037C5.82456 2.78398 5.79225 2.81785 5.77051 2.85838L5.24289 3.86413V3.95L6.21901 5.75375Z" fill="#F4BD62"/>
<path d="M6.20138 5.71251L7.161 4.73001L6.20138 2.90001C6.18567 2.86039 6.15884 2.82617 6.12412 2.80146C6.0894 2.77676 6.04828 2.76262 6.00571 2.76076C5.96314 2.75889 5.92093 2.76938 5.88419 2.79096C5.84745 2.81254 5.81773 2.84429 5.79862 2.88238L5.26837 3.90576L5.25262 3.95788L6.20138 5.71251Z" fill="#FFA50E"/>
<path d="M2.17575 9.72538L2.20463 9.69613L2.30925 9.65376L6.15675 5.82051L6.2055 5.68776L5.24588 3.85851L2.17575 9.72538Z" fill="#F6820C"/>
<path d="M6.34199 11.6585L9.82499 9.71637L8.82974 3.59225C8.8226 3.54907 8.80371 3.5087 8.77514 3.47556C8.74656 3.44243 8.70941 3.4178 8.66776 3.4044C8.6261 3.39099 8.58156 3.38932 8.53902 3.39957C8.49648 3.40982 8.45759 3.43159 8.42661 3.4625L2.17499 9.725L5.63736 11.6581C5.745 11.7182 5.86622 11.7497 5.98949 11.7497C6.11275 11.7497 6.23397 11.7182 6.34161 11.6581" fill="#FDE068"/>
<path d="M9.79312 9.70025L8.80612 3.62225C8.80438 3.58095 8.79042 3.54111 8.76603 3.50775C8.74163 3.47439 8.70788 3.44902 8.66906 3.43484C8.63023 3.42067 8.58808 3.41834 8.54792 3.42813C8.50777 3.43793 8.47143 3.45941 8.44349 3.48987L2.21249 9.71337L5.63662 11.6259C5.74341 11.6854 5.86365 11.7167 5.98593 11.7167C6.10821 11.7167 6.22846 11.6854 6.33524 11.6259L9.79312 9.70025Z" fill="#FCCA3F"/>
<path d="M6.34199 11.6C6.23435 11.6601 6.11313 11.6916 5.98986 11.6916C5.8666 11.6916 5.74538 11.6601 5.63774 11.6L2.20349 9.69575L2.17499 9.725L5.63736 11.6581C5.745 11.7182 5.86622 11.7497 5.98949 11.7497C6.11275 11.7497 6.23397 11.7182 6.34161 11.6581L9.82499 9.71638L9.81636 9.66388L6.34199 11.6Z" fill="#EEAB37"/>
</svg>
