<svg width="12" height="13" viewBox="0 0 12 13" fill="none" xmlns="http://www.w3.org/2000/svg">
<path d="M6 11.75C8.8995 11.75 11.25 9.3995 11.25 6.5C11.25 3.60051 8.8995 1.25 6 1.25C3.10051 1.25 0.75 3.60051 0.75 6.5C0.75 9.3995 3.10051 11.75 6 11.75Z" fill="white"/>
<path d="M6.85911 6.5C6.85911 6.61281 6.83689 6.72451 6.79371 6.82872C6.75053 6.93293 6.68724 7.02762 6.60746 7.10737C6.52767 7.18711 6.43296 7.25036 6.32873 7.29349C6.2245 7.33663 6.11279 7.3588 5.99999 7.35876C5.77223 7.35876 5.5538 7.26828 5.39276 7.10723C5.23171 6.94619 5.14124 6.72776 5.14124 6.5C5.14124 6.2722 5.23173 6.05373 5.39281 5.89264C5.55389 5.73156 5.77237 5.64107 6.00017 5.64107C6.22798 5.64107 6.44645 5.73156 6.60753 5.89264C6.76862 6.05373 6.85911 6.2722 6.85911 6.5Z" fill="#263238"/>
<path d="M9.813 4.29837C9.62613 3.97706 9.39933 3.6807 9.138 3.41637L8.14537 3.98937C7.83915 3.72793 7.48776 3.52459 7.1085 3.38937C6.77704 3.72191 6.50554 4.10924 6.306 4.53425C7.51321 4.4942 8.69206 4.90515 9.61275 5.687L10.2375 5.32625C10.1398 4.9673 9.99707 4.62218 9.81262 4.29912L9.813 4.29837Z" fill="#1976D2"/>
<path d="M9.81337 8.70087C9.99819 8.37848 10.1415 8.03399 10.2397 7.67562L9.24674 7.10224C9.32053 6.7057 9.32117 6.29901 9.24862 5.90224C8.7949 5.78143 8.32371 5.73994 7.85587 5.77962C8.4952 6.80541 8.7293 8.03263 8.51249 9.22174L9.13724 9.58249C9.39894 9.31835 9.62612 9.02211 9.81337 8.70087Z" fill="#42A5F5"/>
<path d="M6 10.9025C6.3717 10.9014 6.74177 10.8533 7.10138 10.7592V9.61249C7.48112 9.47828 7.83314 9.27584 8.14013 9.01512C8.01788 8.56177 7.81819 8.13296 7.54988 7.74762C6.98101 8.81316 6.0357 9.62866 4.89825 10.0351V10.7566C5.25787 10.8516 5.62807 10.9006 6 10.9025Z" fill="#1976D2"/>
<path d="M2.18776 8.70126C2.37463 9.02257 2.60143 9.31893 2.86276 9.58325L3.85576 9.00988C4.16198 9.27133 4.51337 9.47467 4.89264 9.60988C5.2241 9.27734 5.4956 8.89001 5.69514 8.46501C4.48793 8.50506 3.30907 8.0941 2.38839 7.31226L1.76251 7.67413C1.8603 8.0331 2.00319 8.37822 2.18776 8.70126Z" fill="#42A5F5"/>
<path d="M2.18739 4.29874C2.00309 4.6212 1.86033 4.96569 1.76251 5.32399L2.75551 5.89736C2.68171 6.2939 2.68108 6.7006 2.75364 7.09736C3.20735 7.21818 3.67854 7.25966 4.14639 7.21999C3.50693 6.19425 3.27268 4.96702 3.48939 3.77786L2.86464 3.41711C2.60254 3.68119 2.37498 3.97743 2.18739 4.29874Z" fill="#1976D2"/>
<path d="M5.99999 2.09712C5.62829 2.09819 5.25822 2.14632 4.89861 2.24037V3.3875C4.51888 3.52171 4.16685 3.72416 3.85986 3.98487C3.98211 4.43823 4.1818 4.86704 4.45011 5.25237C5.01899 4.18683 5.96429 3.37134 7.10174 2.96487V2.243C6.74212 2.14803 6.37193 2.09902 5.99999 2.09712Z" fill="#42A5F5"/>
</svg>
